<svg xmlns="http://www.w3.org/2000/svg" viewBox="0 0 1024 1024" width="1024" height="1024"><defs>
  <linearGradient id="metal-x" x1="0" y1="0" x2="1" y2="1">
    <stop offset="0%" stop-color="#fff6d8"></stop><stop offset="20%" stop-color="#f1d182"></stop>
    <stop offset="48%" stop-color="#cf9a3e"></stop><stop offset="74%" stop-color="#9c6620"></stop>
    <stop offset="100%" stop-color="#673f12"></stop>
  </linearGradient>
  <linearGradient id="metalDk-x" x1="0" y1="0" x2="1" y2="1">
    <stop offset="0%" stop-color="#c79640"></stop><stop offset="55%" stop-color="#7c4f18"></stop><stop offset="100%" stop-color="#43290c"></stop>
  </linearGradient>
  <radialGradient id="lens-x" cx="38%" cy="32%" r="82%">
    <stop offset="0%" stop-color="#fffdf6"></stop><stop offset="55%" stop-color="#f3e9d2"></stop><stop offset="100%" stop-color="#dcccab"></stop>
  </radialGradient>
  <linearGradient id="paper-x" x1="0" y1="0" x2="0" y2="1">
    <stop offset="0%" stop-color="#fffefa"></stop><stop offset="100%" stop-color="#ece1c6"></stop>
  </linearGradient>
  <filter id="soft-x" x="-40%" y="-40%" width="180%" height="180%">
    <feDropShadow dx="0" dy="12" stdDeviation="16" flood-color="#000" flood-opacity="0.30"></feDropShadow>
  </filter>
  <filter id="cast-x" x="-50%" y="-50%" width="200%" height="200%">
    <feDropShadow dx="0" dy="9" stdDeviation="11" flood-color="#000" flood-opacity="0.26"></feDropShadow>
  </filter></defs>
  <ellipse cx="520" cy="918" rx="300" ry="34" fill="#000" opacity="0.10"></ellipse>
  <g filter="url(#cast-x)">
    
    <path d="M128 416 V470" fill="none" stroke="#5f3a10" stroke-width="16" stroke-linecap="round" stroke-linejoin="round" opacity="0.45" transform="translate(2.5,3.2)"></path>
    <path d="M128 416 V470" fill="none" stroke="url(#metal-x)" stroke-width="16" stroke-linecap="round" stroke-linejoin="round"></path>
    <path d="M128 416 V470" fill="none" stroke="#fff6d8" stroke-width="5.44" stroke-linecap="round" stroke-linejoin="round" opacity="0.6" transform="translate(-1.4,-2)"></path>
    
    <path d="M128 350 m -22 0 a 22 22 0 1 0 44 0 a 22 22 0 1 0 -44 0" fill="none" stroke="#5f3a10" stroke-width="13" stroke-linecap="round" stroke-linejoin="round" opacity="0.45" transform="translate(2.5,3.2)"></path>
    <path d="M128 350 m -22 0 a 22 22 0 1 0 44 0 a 22 22 0 1 0 -44 0" fill="none" stroke="url(#metal-x)" stroke-width="13" stroke-linecap="round" stroke-linejoin="round"></path>
    <path d="M128 350 m -22 0 a 22 22 0 1 0 44 0 a 22 22 0 1 0 -44 0" fill="none" stroke="#fff6d8" stroke-width="4.42" stroke-linecap="round" stroke-linejoin="round" opacity="0.6" transform="translate(-1.4,-2)"></path>
    <path d="M122 470 C98 540 98 548 104 602 C108 662 120 690 124 718 L134 718 C140 690 150 662 154 602 C160 548 160 540 134 470 Z" fill="url(#metal-x)" stroke="#4a2d0c" stroke-width="2.5"></path>
    <path d="M120 478 C104 540 104 548 110 602" fill="none" stroke="#fff6d8" stroke-width="5" opacity="0.6" stroke-linecap="round"></path>
    
    <path d="M104 500 H152" fill="none" stroke="#5f3a10" stroke-width="6" stroke-linecap="round" stroke-linejoin="round" opacity="0.45" transform="translate(2.5,3.2)"></path>
    <path d="M104 500 H152" fill="none" stroke="url(#metal-x)" stroke-width="6" stroke-linecap="round" stroke-linejoin="round"></path>
    <path d="M104 500 H152" fill="none" stroke="#fff6d8" stroke-width="2.04" stroke-linecap="round" stroke-linejoin="round" opacity="0.6" transform="translate(-1.4,-2)"></path>
    
    <path d="M100 596 H158" fill="none" stroke="#5f3a10" stroke-width="6" stroke-linecap="round" stroke-linejoin="round" opacity="0.45" transform="translate(2.5,3.2)"></path>
    <path d="M100 596 H158" fill="none" stroke="url(#metal-x)" stroke-width="6" stroke-linecap="round" stroke-linejoin="round"></path>
    <path d="M100 596 H158" fill="none" stroke="#fff6d8" stroke-width="2.04" stroke-linecap="round" stroke-linejoin="round" opacity="0.6" transform="translate(-1.4,-2)"></path>
    
    <path d="M110 700 H148" fill="none" stroke="#5f3a10" stroke-width="6" stroke-linecap="round" stroke-linejoin="round" opacity="0.45" transform="translate(2.5,3.2)"></path>
    <path d="M110 700 H148" fill="none" stroke="url(#metal-x)" stroke-width="6" stroke-linecap="round" stroke-linejoin="round"></path>
    <path d="M110 700 H148" fill="none" stroke="#fff6d8" stroke-width="2.04" stroke-linecap="round" stroke-linejoin="round" opacity="0.6" transform="translate(-1.4,-2)"></path>
    
    <path d="M129 720 V792" fill="none" stroke="#5f3a10" stroke-width="14" stroke-linecap="round" stroke-linejoin="round" opacity="0.45" transform="translate(2.5,3.2)"></path>
    <path d="M129 720 V792" fill="none" stroke="url(#metal-x)" stroke-width="14" stroke-linecap="round" stroke-linejoin="round"></path>
    <path d="M129 720 V792" fill="none" stroke="#fff6d8" stroke-width="4.760000000000001" stroke-linecap="round" stroke-linejoin="round" opacity="0.6" transform="translate(-1.4,-2)"></path>
    <ellipse cx="129" cy="822" rx="30" ry="34" fill="url(#metal-x)" stroke="#4a2d0c" stroke-width="2.5"></ellipse>
    <ellipse cx="120" cy="812" rx="8" ry="10" fill="#fff7df" opacity="0.7"></ellipse>
  </g>
  <g transform="translate(660,742) rotate(-12)" filter="url(#cast-x)">
    <path d="M-180 -96 a16 16 0 0 1 16 -16 H164 a16 16 0 0 1 16 16 V-12 a13 13 0 0 0 0 26 V96 a16 16 0 0 1 -16 16 H-164 a16 16 0 0 1 -16 -16 V14 a13 13 0 0 0 0 -26 Z" fill="url(#paper-x)" stroke="#caa46a" stroke-width="3"></path>
    <path d="M-164 -114 H164" stroke="#fff" stroke-width="5" opacity="0.7" stroke-linecap="round"></path>
    <line x1="96" y1="-92" x2="96" y2="92" stroke="#b98f4f" stroke-width="7" stroke-dasharray="3 14" stroke-linecap="round"></line>
    <line x1="-150" y1="-70" x2="60" y2="-70" stroke="#caa46a" stroke-width="5" stroke-linecap="round"></line>
    <path d="M-110.0 -12.0 L-102.9 8.3 L-81.5 8.7 L-98.6 21.7 L-92.4 42.3 L-110.0 30.0 L-127.6 42.3 L-121.4 21.7 L-138.5 8.7 L-117.1 8.3 Z" fill="url(#metal-x)"></path>
  </g>
  <g transform="translate(470,772) rotate(5)" filter="url(#cast-x)">
    <path d="M-186 -104 a18 18 0 0 1 18 -18 H170 a18 18 0 0 1 18 18 V-14 a14 14 0 0 0 0 28 V104 a18 18 0 0 1 -18 18 H-168 c 0 -14 -22 -14 -22 0 a18 18 0 0 1 -10 -16 V92 c 16 0 16 -22 0 -22 V46 c 16 0 16 -22 0 -22 V0 c 16 0 16 -22 0 -22 V-58 c 16 0 16 -22 0 -22 Z" fill="url(#paper-x)" stroke="#caa46a" stroke-width="3.5"></path>
    <path d="M-150 -126 H170" stroke="#fff" stroke-width="6" opacity="0.75" stroke-linecap="round"></path>
    <g transform="translate(6,6)">
      
    <path d="M-104 86 H120" fill="none" stroke="#5f3a10" stroke-width="7" stroke-linecap="round" stroke-linejoin="round" opacity="0.45" transform="translate(2.5,3.2)"></path>
    <path d="M-104 86 H120" fill="none" stroke="url(#metal-x)" stroke-width="7" stroke-linecap="round" stroke-linejoin="round"></path>
    <path d="M-104 86 H120" fill="none" stroke="#fff6d8" stroke-width="2.3800000000000003" stroke-linecap="round" stroke-linejoin="round" opacity="0.6" transform="translate(-1.4,-2)"></path>
      
    <path d="M-92 70 H108" fill="none" stroke="#5f3a10" stroke-width="5" stroke-linecap="round" stroke-linejoin="round" opacity="0.45" transform="translate(2.5,3.2)"></path>
    <path d="M-92 70 H108" fill="none" stroke="url(#metal-x)" stroke-width="5" stroke-linecap="round" stroke-linejoin="round"></path>
    <path d="M-92 70 H108" fill="none" stroke="#fff6d8" stroke-width="1.7000000000000002" stroke-linecap="round" stroke-linejoin="round" opacity="0.6" transform="translate(-1.4,-2)"></path>
      
    <path d="M-84 68 V-6" fill="none" stroke="#5f3a10" stroke-width="9" stroke-linecap="round" stroke-linejoin="round" opacity="0.45" transform="translate(2.5,3.2)"></path>
    <path d="M-84 68 V-6" fill="none" stroke="url(#metal-x)" stroke-width="9" stroke-linecap="round" stroke-linejoin="round"></path>
    <path d="M-84 68 V-6" fill="none" stroke="#fff6d8" stroke-width="3.06" stroke-linecap="round" stroke-linejoin="round" opacity="0.6" transform="translate(-1.4,-2)"></path>
      
    <path d="M-34 68 V-6" fill="none" stroke="#5f3a10" stroke-width="9" stroke-linecap="round" stroke-linejoin="round" opacity="0.45" transform="translate(2.5,3.2)"></path>
    <path d="M-34 68 V-6" fill="none" stroke="url(#metal-x)" stroke-width="9" stroke-linecap="round" stroke-linejoin="round"></path>
    <path d="M-34 68 V-6" fill="none" stroke="#fff6d8" stroke-width="3.06" stroke-linecap="round" stroke-linejoin="round" opacity="0.6" transform="translate(-1.4,-2)"></path>
      
    <path d="M40 68 V-6" fill="none" stroke="#5f3a10" stroke-width="9" stroke-linecap="round" stroke-linejoin="round" opacity="0.45" transform="translate(2.5,3.2)"></path>
    <path d="M40 68 V-6" fill="none" stroke="url(#metal-x)" stroke-width="9" stroke-linecap="round" stroke-linejoin="round"></path>
    <path d="M40 68 V-6" fill="none" stroke="#fff6d8" stroke-width="3.06" stroke-linecap="round" stroke-linejoin="round" opacity="0.6" transform="translate(-1.4,-2)"></path>
      
    <path d="M90 68 V-6" fill="none" stroke="#5f3a10" stroke-width="9" stroke-linecap="round" stroke-linejoin="round" opacity="0.45" transform="translate(2.5,3.2)"></path>
    <path d="M90 68 V-6" fill="none" stroke="url(#metal-x)" stroke-width="9" stroke-linecap="round" stroke-linejoin="round"></path>
    <path d="M90 68 V-6" fill="none" stroke="#fff6d8" stroke-width="3.06" stroke-linecap="round" stroke-linejoin="round" opacity="0.6" transform="translate(-1.4,-2)"></path>
      
    <path d="M-94 -8 H-74 M-94 68 H-74" fill="none" stroke="#5f3a10" stroke-width="5" stroke-linecap="round" stroke-linejoin="round" opacity="0.45" transform="translate(2.5,3.2)"></path>
    <path d="M-94 -8 H-74 M-94 68 H-74" fill="none" stroke="url(#metal-x)" stroke-width="5" stroke-linecap="round" stroke-linejoin="round"></path>
    <path d="M-94 -8 H-74 M-94 68 H-74" fill="none" stroke="#fff6d8" stroke-width="1.7000000000000002" stroke-linecap="round" stroke-linejoin="round" opacity="0.6" transform="translate(-1.4,-2)"></path>
      
    <path d="M-44 -8 H-24 M-44 68 H-24" fill="none" stroke="#5f3a10" stroke-width="5" stroke-linecap="round" stroke-linejoin="round" opacity="0.45" transform="translate(2.5,3.2)"></path>
    <path d="M-44 -8 H-24 M-44 68 H-24" fill="none" stroke="url(#metal-x)" stroke-width="5" stroke-linecap="round" stroke-linejoin="round"></path>
    <path d="M-44 -8 H-24 M-44 68 H-24" fill="none" stroke="#fff6d8" stroke-width="1.7000000000000002" stroke-linecap="round" stroke-linejoin="round" opacity="0.6" transform="translate(-1.4,-2)"></path>
      
    <path d="M30 -8 H50 M30 68 H50" fill="none" stroke="#5f3a10" stroke-width="5" stroke-linecap="round" stroke-linejoin="round" opacity="0.45" transform="translate(2.5,3.2)"></path>
    <path d="M30 -8 H50 M30 68 H50" fill="none" stroke="url(#metal-x)" stroke-width="5" stroke-linecap="round" stroke-linejoin="round"></path>
    <path d="M30 -8 H50 M30 68 H50" fill="none" stroke="#fff6d8" stroke-width="1.7000000000000002" stroke-linecap="round" stroke-linejoin="round" opacity="0.6" transform="translate(-1.4,-2)"></path>
      
    <path d="M80 -8 H100 M80 68 H100" fill="none" stroke="#5f3a10" stroke-width="5" stroke-linecap="round" stroke-linejoin="round" opacity="0.45" transform="translate(2.5,3.2)"></path>
    <path d="M80 -8 H100 M80 68 H100" fill="none" stroke="url(#metal-x)" stroke-width="5" stroke-linecap="round" stroke-linejoin="round"></path>
    <path d="M80 -8 H100 M80 68 H100" fill="none" stroke="#fff6d8" stroke-width="1.7000000000000002" stroke-linecap="round" stroke-linejoin="round" opacity="0.6" transform="translate(-1.4,-2)"></path>
      
    <path d="M-104 -14 H120" fill="none" stroke="#5f3a10" stroke-width="8" stroke-linecap="round" stroke-linejoin="round" opacity="0.45" transform="translate(2.5,3.2)"></path>
    <path d="M-104 -14 H120" fill="none" stroke="url(#metal-x)" stroke-width="8" stroke-linecap="round" stroke-linejoin="round"></path>
    <path d="M-104 -14 H120" fill="none" stroke="#fff6d8" stroke-width="2.72" stroke-linecap="round" stroke-linejoin="round" opacity="0.6" transform="translate(-1.4,-2)"></path>
      
    <path d="M-104 -22 L8 -78 L120 -22" fill="none" stroke="#5f3a10" stroke-width="8" stroke-linecap="round" stroke-linejoin="round" opacity="0.45" transform="translate(2.5,3.2)"></path>
    <path d="M-104 -22 L8 -78 L120 -22" fill="none" stroke="url(#metal-x)" stroke-width="8" stroke-linecap="round" stroke-linejoin="round"></path>
    <path d="M-104 -22 L8 -78 L120 -22" fill="none" stroke="#fff6d8" stroke-width="2.72" stroke-linecap="round" stroke-linejoin="round" opacity="0.6" transform="translate(-1.4,-2)"></path>
      
    <path d="M8 -78 V-96" fill="none" stroke="#5f3a10" stroke-width="6" stroke-linecap="round" stroke-linejoin="round" opacity="0.45" transform="translate(2.5,3.2)"></path>
    <path d="M8 -78 V-96" fill="none" stroke="url(#metal-x)" stroke-width="6" stroke-linecap="round" stroke-linejoin="round"></path>
    <path d="M8 -78 V-96" fill="none" stroke="#fff6d8" stroke-width="2.04" stroke-linecap="round" stroke-linejoin="round" opacity="0.6" transform="translate(-1.4,-2)"></path>
      <path d="M8.0 -112.0 L10.9 -104.0 L19.4 -103.7 L12.8 -98.5 L15.1 -90.3 L8.0 -95.0 L0.9 -90.3 L3.2 -98.5 L-3.4 -103.7 L5.1 -104.0 Z" fill="url(#metal-x)"></path>
      
    <path d="M-74 -2 Q-54 24 -34 -2" fill="none" stroke="#5f3a10" stroke-width="5" stroke-linecap="round" stroke-linejoin="round" opacity="0.45" transform="translate(2.5,3.2)"></path>
    <path d="M-74 -2 Q-54 24 -34 -2" fill="none" stroke="url(#metal-x)" stroke-width="5" stroke-linecap="round" stroke-linejoin="round"></path>
    <path d="M-74 -2 Q-54 24 -34 -2" fill="none" stroke="#fff6d8" stroke-width="1.7000000000000002" stroke-linecap="round" stroke-linejoin="round" opacity="0.6" transform="translate(-1.4,-2)"></path>
      
    <path d="M-24 -2 Q8 30 40 -2" fill="none" stroke="#5f3a10" stroke-width="5" stroke-linecap="round" stroke-linejoin="round" opacity="0.45" transform="translate(2.5,3.2)"></path>
    <path d="M-24 -2 Q8 30 40 -2" fill="none" stroke="url(#metal-x)" stroke-width="5" stroke-linecap="round" stroke-linejoin="round"></path>
    <path d="M-24 -2 Q8 30 40 -2" fill="none" stroke="#fff6d8" stroke-width="1.7000000000000002" stroke-linecap="round" stroke-linejoin="round" opacity="0.6" transform="translate(-1.4,-2)"></path>
      
    <path d="M50 -2 Q70 24 90 -2" fill="none" stroke="#5f3a10" stroke-width="5" stroke-linecap="round" stroke-linejoin="round" opacity="0.45" transform="translate(2.5,3.2)"></path>
    <path d="M50 -2 Q70 24 90 -2" fill="none" stroke="url(#metal-x)" stroke-width="5" stroke-linecap="round" stroke-linejoin="round"></path>
    <path d="M50 -2 Q70 24 90 -2" fill="none" stroke="#fff6d8" stroke-width="1.7000000000000002" stroke-linecap="round" stroke-linejoin="round" opacity="0.6" transform="translate(-1.4,-2)"></path>
    </g>
  </g>
  <g filter="url(#soft-x)">
    <path d="M 236 404 c -34 -54 -86 -52 -120 -30 c 26 4 40 22 30 44 c 30 6 56 -2 90 -14 Z" fill="url(#metal-x)" stroke="#4a2d0c" stroke-width="2.5" stroke-linejoin="round"></path>
    <g transform="translate(1024,0) scale(-1,1)"><path d="M 236 404 c -34 -54 -86 -52 -120 -30 c 26 4 40 22 30 44 c 30 6 56 -2 90 -14 Z" fill="url(#metal-x)" stroke="#4a2d0c" stroke-width="2.5" stroke-linejoin="round"></path></g>
    
    <path d="M 460 398 Q 512 348 564 398" fill="none" stroke="#5f3a10" stroke-width="12" stroke-linecap="round" stroke-linejoin="round" opacity="0.45" transform="translate(2.5,3.2)"></path>
    <path d="M 460 398 Q 512 348 564 398" fill="none" stroke="url(#metal-x)" stroke-width="12" stroke-linecap="round" stroke-linejoin="round"></path>
    <path d="M 460 398 Q 512 348 564 398" fill="none" stroke="#fff6d8" stroke-width="4.08" stroke-linecap="round" stroke-linejoin="round" opacity="0.6" transform="translate(-1.4,-2)"></path>
    
    <circle cx="350" cy="404" r="120" fill="url(#metal-x)"></circle>
    <circle cx="350" cy="404" r="120" fill="none" stroke="#4a2d0c" stroke-width="2.5" opacity="0.55"></circle>
    <path d="M 270.8 324.8 A 120 120 0 0 1 431.6 329.6" fill="none" stroke="#fff7df" stroke-width="5" stroke-linecap="round" opacity="0.85"></path>
    <circle cx="350" cy="404" r="100" fill="url(#lens-x)" stroke="#9c6620" stroke-width="3"></circle>
    <circle cx="350" cy="404" r="100" fill="none" stroke="#3a230a" stroke-width="1.5" opacity="0.35"></circle>
    <path d="M 290 358 Q 345 318 400 354 Q 348 370 290 358 Z" fill="#ffffff" opacity="0.5"></path>
    
    <circle cx="674" cy="404" r="120" fill="url(#metal-x)"></circle>
    <circle cx="674" cy="404" r="120" fill="none" stroke="#4a2d0c" stroke-width="2.5" opacity="0.55"></circle>
    <path d="M 594.8 324.8 A 120 120 0 0 1 755.6 329.6" fill="none" stroke="#fff7df" stroke-width="5" stroke-linecap="round" opacity="0.85"></path>
    <circle cx="674" cy="404" r="100" fill="url(#lens-x)" stroke="#9c6620" stroke-width="3"></circle>
    <circle cx="674" cy="404" r="100" fill="none" stroke="#3a230a" stroke-width="1.5" opacity="0.35"></circle>
    <path d="M 614 358 Q 669 318 724 354 Q 672 370 614 358 Z" fill="#ffffff" opacity="0.5"></path>
    <circle cx="512" cy="402" r="26" fill="url(#metal-x)" stroke="#4a2d0c" stroke-width="2.5"></circle>
    <circle cx="512" cy="402" r="11" fill="url(#metalDk-x)"></circle>
    <circle cx="505" cy="395" r="4" fill="#fff7df" opacity="0.8"></circle>
    
    <path d="M512 354 V 308" fill="none" stroke="#5f3a10" stroke-width="12" stroke-linecap="round" stroke-linejoin="round" opacity="0.45" transform="translate(2.5,3.2)"></path>
    <path d="M512 354 V 308" fill="none" stroke="url(#metal-x)" stroke-width="12" stroke-linecap="round" stroke-linejoin="round"></path>
    <path d="M512 354 V 308" fill="none" stroke="#fff6d8" stroke-width="4.08" stroke-linecap="round" stroke-linejoin="round" opacity="0.6" transform="translate(-1.4,-2)"></path>
    <rect x="470" y="254" width="84" height="56" rx="14" fill="url(#metal-x)" stroke="#4a2d0c" stroke-width="2.5"></rect>
    <path d="M488 262 V300 M512 262 V300 M536 262 V300" stroke="#5f3a10" stroke-width="4.5" opacity="0.5"></path>
    <rect x="476" y="258" width="72" height="9" rx="4" fill="#fff6d8" opacity="0.55"></rect>
  </g></svg>